<?xml version="1.0" standalone="no"?>
<!DOCTYPE svg PUBLIC "-//W3C//DTD SVG 20010904//EN"
 "http://www.w3.org/TR/2001/REC-SVG-20010904/DTD/svg10.dtd">
<svg version="1.0" xmlns="http://www.w3.org/2000/svg"
 width="1300.000000pt" height="1300.000000pt" viewBox="0 0 1300.000000 1300.000000"
 preserveAspectRatio="xMidYMid meet">

<g transform="translate(0.000000,1300.000000) scale(0.100000,-0.100000)"
fill="#000000" stroke="none">
<path d="M1232 12175 c-100 -28 -170 -82 -217 -166 l-30 -54 -3 -197 -3 -197
25 -26 c35 -35 88 -34 121 1 24 26 25 31 25 193 0 138 3 172 18 200 26 52 63
74 129 79 48 3 64 0 92 -20 19 -13 43 -37 52 -53 10 -17 108 -390 218 -830
181 -722 203 -802 226 -822 29 -25 61 -29 100 -11 30 13 38 38 115 350 l54
218 -39 42 -40 43 43 -40 c23 -21 42 -36 42 -32 0 30 265 1058 279 1082 9 16
33 40 52 53 28 20 44 23 89 20 58 -4 91 -22 126 -67 17 -23 20 -48 24 -201 6
-212 13 -230 91 -230 39 0 76 37 85 84 3 21 4 103 2 184 -4 130 -8 154 -30
202 -48 105 -124 170 -233 197 -53 13 -75 14 -122 4 -110 -22 -199 -85 -244
-172 -11 -22 -76 -260 -143 -529 -114 -452 -122 -490 -107 -506 15 -17 15 -17
-1 -5 -19 14 -18 17 -58 -151 -13 -54 -27 -98 -31 -98 -3 0 -9 15 -12 33 -17
88 -115 452 -121 449 -4 -2 -11 0 -14 4 -4 4 -1 4 6 0 6 -4 12 -2 12 4 0 6
-40 174 -90 373 -62 248 -100 382 -121 424 -67 134 -226 207 -367 168z"/>
<path d="M4271 12173 c-71 -18 -106 -38 -158 -89 -56 -57 -85 -121 -91 -204
-3 -56 -1 -68 18 -90 16 -18 31 -25 60 -25 48 0 78 26 86 74 19 115 75 171
171 171 58 0 114 -33 139 -82 9 -18 21 -68 26 -113 13 -122 51 -209 126 -287
20 -21 34 -39 31 -41 -2 -1 -30 -21 -63 -42 -192 -130 -298 -346 -283 -580 17
-265 190 -489 443 -574 86 -29 237 -39 326 -21 232 45 424 216 500 445 19 59
23 90 23 195 -1 109 -4 135 -27 201 -50 142 -148 269 -262 341 -28 18 -53 33
-55 35 -2 1 12 20 32 42 77 86 127 200 127 294 1 107 59 177 155 185 92 8 159
-50 174 -149 11 -69 47 -104 100 -95 49 8 71 39 71 103 0 80 -33 156 -95 218
-160 160 -430 121 -536 -78 -24 -45 -32 -77 -39 -146 -13 -139 -64 -221 -169
-273 -62 -31 -176 -32 -242 -2 -98 45 -154 135 -170 269 -12 106 -34 156 -98
227 -37 41 -67 62 -104 76 -69 26 -153 32 -216 15z m839 -805 c229 -69 379
-301 341 -528 -43 -263 -289 -445 -543 -402 -243 41 -426 269 -404 503 16 179
113 321 270 395 108 51 232 63 336 32z m231 -115 c13 -16 12 -17 -3 -4 -17 13
-22 21 -14 21 2 0 10 -8 17 -17z m64 -63 c21 -22 37 -40 34 -40 -3 0 -23 18
-44 40 -21 22 -37 40 -34 40 3 0 23 -18 44 -40z m75 -75 c13 -14 21 -25 18
-25 -2 0 -15 11 -28 25 -13 14 -21 25 -18 25 2 0 15 -11 28 -25z m91 -92 c13
-16 12 -17 -3 -4 -10 7 -18 15 -18 17 0 8 8 3 21 -13z"/>
<path d="M7120 12183 c-36 -13 -60 -47 -60 -83 0 -46 10 -59 90 -110 120 -77
406 -200 466 -200 12 0 14 -87 14 -564 l0 -564 -86 -26 c-164 -52 -385 -162
-455 -227 -38 -36 -40 -89 -4 -124 36 -37 78 -32 150 16 129 87 324 166 505
205 121 26 439 27 560 1 176 -38 369 -116 508 -206 74 -48 112 -52 147 -16 36
35 34 88 -4 124 -68 64 -275 167 -445 222 l-96 31 0 562 0 561 98 30 c126 39
254 97 368 168 96 60 104 69 104 120 -1 39 -18 63 -55 77 -35 13 -52 8 -123
-39 -31 -21 -86 -53 -122 -70 -36 -18 -73 -37 -84 -43 -58 -31 -262 -85 -409
-109 -160 -25 -442 5 -627 68 -91 30 -252 108 -339 163 -65 40 -73 43 -101 33z
m1120 -966 l0 -528 -37 8 c-48 9 -315 9 -365 -1 l-38 -7 0 528 0 528 220 0
220 1 0 -529z"/>
<path d="M10945 12179 c-218 -28 -405 -119 -561 -273 -184 -182 -285 -417
-285 -666 -1 -100 18 -176 61 -244 32 -53 121 -130 185 -162 56 -27 68 -29
175 -29 108 0 119 2 180 31 81 39 169 124 204 198 79 167 41 373 -91 498 -96
89 -236 132 -356 110 -33 -6 -63 -9 -65 -7 -15 15 103 149 193 217 265 204
660 210 932 15 34 -24 48 -28 75 -23 78 15 102 88 49 145 -16 17 -36 31 -44
31 -8 0 -20 7 -28 16 -38 46 -231 117 -376 139 -108 16 -144 17 -248 4z m-328
-724 c59 -25 96 -59 127 -115 85 -156 -19 -349 -199 -367 -187 -19 -329 173
-255 345 25 59 95 127 144 141 50 15 144 12 183 -4z"/>
<path d="M11512 11639 c-153 -30 -286 -157 -327 -314 -15 -60 -20 -146 -9
-158 4 -3 8 -22 9 -41 5 -94 119 -235 229 -287 94 -44 232 -54 310 -23 14 5 8
-8 -22 -52 -98 -144 -263 -258 -441 -306 -57 -15 -107 -21 -201 -21 -152 0
-239 21 -368 88 l-87 45 -50 -48 -50 -47 48 50 c54 59 50 75 -19 75 -34 0 -47
-5 -63 -26 -49 -62 -7 -127 125 -196 153 -81 301 -118 464 -118 526 0 960 427
960 944 0 113 -17 174 -71 256 -94 140 -270 212 -437 179z m188 -190 c120 -54
173 -174 136 -303 -43 -145 -215 -218 -353 -148 -183 94 -177 367 9 452 58 26
149 26 208 -1z m-390 -173 c0 -2 -8 -10 -17 -17 -16 -13 -17 -12 -4 4 13 16
21 21 21 13z m-40 -39 c0 -2 -10 -12 -22 -23 l-23 -19 19 23 c18 21 26 27 26
19z"/>
<path d="M1920 9144 c-66 -13 -158 -49 -184 -73 -16 -14 -25 -19 -21 -11 20
34 -84 -61 -127 -118 -63 -83 -89 -156 -95 -268 -6 -97 7 -162 52 -259 35 -75
85 -193 85 -198 0 -3 -15 -1 -32 4 -18 6 -70 10 -114 10 -197 -2 -375 -117
-462 -299 -31 -65 -36 -86 -40 -172 -5 -116 7 -179 54 -270 81 -156 238 -257
414 -268 146 -8 272 35 372 128 l53 49 -60 63 -60 63 62 -60 c72 -68 69 -68
119 31 51 103 68 236 43 344 -9 41 -93 238 -242 565 -29 66 -60 144 -66 172
-34 140 41 295 176 364 41 20 62 24 143 24 84 0 101 -3 145 -27 66 -35 118
-90 149 -159 44 -96 43 -114 -24 -469 -69 -362 -73 -426 -31 -513 113 -234
420 -276 591 -81 65 75 104 208 75 263 -30 59 -89 68 -136 22 -20 -21 -29 -39
-29 -62 0 -55 -37 -116 -88 -146 -94 -55 -209 -20 -251 76 -11 27 -21 57 -21
66 0 16 46 269 90 495 11 58 23 139 27 181 18 231 -130 445 -356 515 -50 15
-171 25 -211 18z m-352 -1095 c150 -35 264 -197 248 -352 -12 -120 -87 -225
-195 -276 -80 -37 -192 -36 -273 1 -152 71 -227 232 -183 393 47 177 219 276
403 234z"/>
<path d="M4257 9139 c-135 -32 -237 -152 -237 -280 0 -71 25 -99 88 -99 37 0
45 4 62 33 11 17 20 44 20 58 0 33 38 90 70 106 31 16 91 17 122 2 13 -5 33
-24 45 -42 22 -32 22 -36 24 -517 2 -363 5 -493 15 -517 22 -57 83 -70 131
-29 l28 24 5 512 5 512 37 34 c33 29 45 34 88 34 43 0 55 -5 88 -34 l37 -34 5
-512 5 -512 28 -24 c36 -31 78 -31 114 0 l28 24 1 497 c2 348 5 504 13 523 20
46 59 67 123 67 52 0 61 -3 90 -33 l33 -32 3 -714 2 -714 -62 -25 c-77 -30
-138 -43 -243 -53 -69 -6 -84 -11 -107 -35 -35 -35 -35 -69 -1 -110 l27 -32
106 6 c107 6 213 31 305 72 l50 22 45 -33 c92 -68 214 -84 252 -33 29 39 27
88 -6 116 -15 12 -34 23 -43 23 -14 0 -13 -3 3 -22 l19 -23 -25 22 c-14 12
-38 26 -53 32 -16 6 -25 16 -22 22 4 6 -4 23 -16 37 l-24 27 27 -24 27 -23 28
22 c36 27 123 127 164 186 44 65 109 207 131 289 11 41 22 121 25 191 5 114 4
125 -19 176 -14 30 -40 70 -57 91 -68 77 -204 115 -303 84 l-46 -15 -4 222
c-3 214 -4 223 -29 276 -37 79 -79 123 -151 156 -87 40 -179 40 -258 0 -30
-16 -63 -35 -72 -43 -15 -13 -20 -12 -50 10 -38 29 -144 67 -186 67 -45 0
-123 -26 -174 -59 l-47 -30 -50 34 c-72 48 -152 63 -234 44z m1443 -839 c40
-21 63 -60 68 -116 8 -102 -36 -280 -96 -383 -31 -56 -101 -148 -136 -180
l-26 -24 0 312 c0 259 3 317 15 341 30 57 114 81 175 50z m-205 -770 c10 -11
16 -20 13 -20 -3 0 -13 9 -23 20 -10 11 -16 20 -13 20 3 0 13 -9 23 -20z m206
-207 c13 -16 12 -17 -3 -4 -10 7 -18 15 -18 17 0 8 8 3 21 -13z"/>
<path d="M7935 9144 c-341 -50 -585 -264 -677 -592 -29 -106 -29 -274 1 -387
23 -87 74 -194 127 -267 33 -46 33 -48 11 -49 -12 0 -79 0 -149 1 -126 1 -127
1 -159 -28 -24 -21 -32 -37 -31 -60 1 -42 18 -71 48 -82 38 -15 570 -13 597 2
33 17 46 39 47 77 0 36 -19 57 -110 124 -94 69 -181 205 -216 337 -18 71 -18
211 1 285 72 277 312 465 595 465 105 0 182 -19 280 -68 94 -46 212 -160 257
-247 145 -277 67 -624 -177 -788 -77 -51 -90 -67 -90 -106 0 -20 9 -47 20 -61
l19 -25 306 0 307 0 19 24 c28 35 25 92 -7 122 -24 23 -33 24 -179 27 l-154 4
34 47 c67 93 115 211 136 333 69 401 -173 777 -572 888 -72 20 -225 33 -284
24z"/>
<path d="M10350 9141 c-99 -23 -175 -84 -219 -174 -51 -104 -43 -192 21 -218
53 -22 118 24 118 84 0 38 23 79 60 111 61 51 167 27 207 -46 17 -30 18 -74
20 -553 l3 -519 25 -25 c32 -33 87 -34 118 -3 l22 23 5 535 5 535 42 40 c37
34 48 39 91 39 35 0 59 -7 83 -23 65 -44 64 -29 66 -597 2 -363 6 -522 14
-537 23 -44 100 -50 136 -11 17 19 18 57 23 554 l5 534 37 36 c31 32 44 38 90
41 60 5 104 -16 135 -64 17 -25 18 -69 24 -568 4 -449 8 -549 21 -591 28 -92
87 -197 153 -276 l66 -78 -75 0 c-69 0 -77 -2 -101 -27 -33 -36 -33 -81 0
-117 l24 -26 201 0 c270 0 250 -20 250 250 0 200 0 201 -25 225 -33 34 -85 34
-120 0 -22 -23 -25 -34 -25 -103 l-1 -77 -53 58 c-29 31 -67 84 -84 116 -59
110 -62 135 -62 687 0 559 0 560 -68 649 -27 36 -57 60 -106 85 -60 31 -78 35
-140 35 -74 -1 -152 -28 -205 -72 l-24 -20 -50 34 c-65 44 -146 67 -209 60
-56 -7 -159 -51 -184 -78 -17 -19 -18 -18 -51 7 -74 56 -183 83 -263 65z"/>
<path d="M7085 7365 c-17 -16 -25 -35 -25 -60 0 -25 8 -44 25 -60 l24 -25 911
0 911 0 24 25 c17 16 25 35 25 60 0 25 -8 44 -25 60 l-24 25 -762 0 c-712 0
-764 -1 -783 -17 -20 -17 -20 -17 -7 0 13 16 5 17 -128 17 -137 0 -143 -1
-166 -25z m235 -59 c0 -2 -8 -10 -17 -17 -16 -13 -17 -12 -4 4 13 16 21 21 21
13z"/>
<path d="M2011 6099 c-35 -14 -50 -39 -51 -81 0 -39 18 -64 57 -79 13 -5 148
-9 300 -9 152 0 277 -1 279 -3 2 -1 -208 -214 -466 -472 l-470 -470 -177 177
c-108 107 -188 179 -204 183 -31 8 -83 -16 -93 -40 -3 -9 -6 -31 -6 -48 0 -28
22 -54 180 -212 l180 -180 -280 -280 c-267 -268 -280 -283 -280 -318 0 -51 35
-87 86 -87 35 0 52 15 318 280 l280 280 172 -172 c95 -94 178 -175 186 -179
24 -16 67 -9 93 14 21 17 27 32 27 61 0 37 -9 48 -178 217 -98 98 -176 181
-174 183 3 3 214 215 470 471 l465 466 5 -293 c3 -161 9 -300 13 -309 17 -34
80 -49 119 -28 45 24 48 53 48 470 0 350 -2 394 -17 420 -24 40 -52 47 -203
48 l-134 2 -85 -83 -86 -83 80 83 80 82 -255 -1 c-140 0 -266 -5 -279 -10z"/>
<path d="M4273 6100 c-58 -12 -98 -35 -155 -88 -58 -54 -90 -117 -96 -189 -6
-71 2 -95 38 -116 60 -36 114 -4 129 75 19 102 76 152 166 145 63 -4 108 -36
130 -89 12 -32 15 -94 15 -371 l0 -332 25 -28 c16 -17 36 -27 53 -27 27 0 69
22 84 44 4 6 8 157 8 336 0 194 4 340 11 363 18 68 74 107 152 107 55 0 101
-29 127 -79 20 -39 20 -56 20 -712 0 -599 -2 -675 -16 -705 -23 -48 -58 -73
-116 -80 -94 -13 -134 -82 -83 -143 23 -27 33 -31 76 -31 77 0 156 35 216 96
73 75 92 131 94 278 0 64 3 116 6 116 3 0 24 -13 48 -29 181 -122 423 -99 586
55 103 99 149 206 149 350 0 136 -39 232 -139 338 -65 69 -171 123 -260 132
-25 2 -53 7 -62 9 -49 16 -280 -56 -303 -94 -21 -34 -26 5 -26 204 0 251 -9
288 -86 367 -119 122 -299 138 -432 38 l-50 -38 -21 22 c-57 61 -192 96 -288
76z m1207 -634 c0 -2 -8 -10 -17 -17 -16 -13 -17 -12 -4 4 13 16 21 21 21 13z
m111 -143 c190 -84 238 -346 90 -493 -61 -60 -110 -82 -197 -88 -95 -6 -158
15 -225 76 -179 161 -113 446 121 523 43 14 161 4 211 -18z"/>
<path d="M7589 6099 c-16 -6 -53 -47 -95 -107 -38 -53 -97 -135 -132 -181
l-63 -84 33 -36 33 -36 -35 32 -35 32 -100 -134 c-130 -176 -147 -207 -133
-246 5 -16 20 -36 31 -44 23 -16 74 -20 93 -7 6 4 71 88 144 187 73 99 156
211 183 248 34 46 53 64 58 55 4 -7 21 -107 39 -223 17 -115 34 -214 37 -220
35 -61 97 -74 141 -27 15 15 70 86 122 157 75 104 221 303 237 324 8 10 13
-16 43 -209 17 -113 36 -220 41 -237 21 -66 95 -85 141 -35 14 15 65 81 114
147 48 66 118 161 154 210 37 50 74 100 82 113 15 22 16 21 26 -35 6 -32 23
-136 38 -232 23 -146 31 -178 51 -202 49 -57 143 -25 143 49 0 20 -23 183 -51
362 -53 343 -60 365 -113 383 -34 11 -82 -7 -99 -38 -7 -12 -24 -38 -39 -56
-15 -19 -73 -97 -129 -174 -159 -219 -184 -249 -187 -234 -1 8 -17 111 -36
230 -19 119 -39 226 -45 237 -15 27 -71 45 -103 33 -16 -6 -91 -99 -209 -260
-171 -233 -185 -248 -191 -223 -4 15 -22 117 -39 227 -17 110 -37 210 -45 223
-8 13 -26 27 -40 32 -29 12 -31 12 -65 -1z m-184 -479 c10 -11 16 -20 13 -20
-3 0 -13 9 -23 20 -10 11 -16 20 -13 20 3 0 13 -9 23 -20z"/>
<path d="M10143 6098 c-31 -15 -56 -70 -44 -100 12 -31 35 -50 101 -83 130
-65 260 -182 337 -303 50 -78 101 -200 118 -280 24 -109 29 -102 -80 -102
-100 0 -147 -13 -159 -45 -13 -35 -6 -76 19 -100 23 -23 31 -25 130 -25 123 0
119 6 85 -124 -40 -159 -114 -288 -230 -405 -77 -77 -133 -117 -237 -170 -73
-36 -95 -68 -81 -118 18 -69 76 -79 171 -32 197 100 367 271 470 474 38 77 83
214 92 285 14 101 -13 90 225 90 116 0 210 -2 210 -4 0 -15 34 -180 44 -216
23 -78 71 -182 118 -255 68 -107 131 -172 285 -295 47 -38 192 -110 221 -110
63 0 103 72 72 131 -6 10 -46 37 -89 58 -150 76 -288 204 -360 336 -48 88 -99
230 -107 301 l-7 54 107 0 c100 0 108 2 131 25 32 31 33 82 4 116 -19 22 -29
24 -131 27 l-110 4 6 46 c37 259 225 517 466 637 79 39 100 61 100 106 0 27
-7 45 -22 59 -41 38 -64 36 -162 -14 -171 -86 -318 -223 -416 -386 -77 -128
-104 -209 -146 -427 -4 -23 -5 -23 -213 -23 -227 0 -221 -1 -221 57 0 14 -11
68 -25 121 -77 288 -266 522 -532 659 -88 45 -104 49 -140 31z"/>
<path d="M7585 4999 c-11 -6 -56 -60 -100 -120 -44 -61 -94 -129 -111 -152
-287 -386 -314 -426 -314 -464 0 -45 37 -83 82 -83 18 0 38 4 44 8 12 7 56 66
264 348 92 126 116 153 122 138 6 -16 68 -400 68 -424 0 -5 12 -22 26 -39 37
-44 86 -43 126 2 32 35 221 290 301 405 28 39 54 72 58 72 4 0 12 -30 18 -67
5 -38 20 -131 31 -208 26 -169 35 -200 63 -220 32 -22 80 -19 104 8 24 25 157
201 282 373 68 93 86 112 92 98 3 -11 21 -111 39 -224 17 -113 37 -214 43
-225 41 -77 157 -49 157 38 0 19 -9 90 -19 158 -11 68 -34 214 -51 324 -33
209 -46 247 -90 253 -52 8 -87 -7 -115 -51 -25 -37 -72 -102 -266 -362 -24
-32 -49 -68 -55 -78 -6 -11 -14 -16 -17 -11 -5 10 -39 207 -58 344 -14 107
-32 145 -71 159 -59 21 -77 7 -191 -151 -21 -29 -84 -114 -139 -188 -55 -74
-104 -144 -110 -155 -11 -19 -12 -19 -19 5 -5 14 -22 117 -39 230 -18 113 -38
215 -46 228 -15 22 -53 43 -77 41 -7 0 -21 -5 -32 -10z"/>
<path d="M1718 3058 c-21 -5 -56 -29 -82 -55 -39 -38 -46 -51 -46 -84 0 -89
106 -120 158 -47 29 40 102 6 102 -47 0 -38 -27 -85 -56 -95 -14 -6 -180 -10
-384 -10 l-358 0 -31 -26 c-44 -37 -44 -91 0 -129 l32 -26 381 3 c373 3 382 3
423 26 108 57 163 142 163 251 0 84 -23 134 -84 188 -64 56 -136 73 -218 51z"/>
<path d="M2428 3060 c-57 -10 -107 -39 -167 -94 -85 -80 -122 -222 -85 -326
26 -73 54 -100 101 -100 76 1 102 49 72 135 -16 46 -18 63 -9 94 20 77 78 121
158 121 87 0 157 -43 196 -122 36 -72 35 -143 -3 -223 -48 -103 -128 -159
-256 -181 -22 -3 -51 -16 -65 -28 -24 -20 -24 -20 -7 0 9 11 17 23 17 26 0 4
-303 6 -674 5 l-674 -2 -26 -24 c-49 -46 -28 -130 36 -146 13 -3 349 -4 748
-3 711 3 726 4 781 25 175 66 276 184 314 368 19 92 12 150 -23 188 l-26 27
-56 -52 -55 -53 52 55 53 55 -108 110 -107 110 111 -108 c90 -88 113 -106 122
-94 26 31 -81 153 -177 202 -55 28 -76 32 -65 13 4 -7 -2 -5 -13 5 -24 21
-100 29 -165 17z m-128 -794 c0 -2 -8 -10 -17 -17 -16 -13 -17 -12 -4 4 13 16
21 21 21 13z"/>
<path d="M5240 3055 c-118 -22 -229 -83 -322 -176 -78 -77 -79 -80 -222 -371
-79 -161 -154 -303 -168 -315 -80 -75 -221 -67 -291 16 -25 31 -35 58 -54 146
-13 65 -74 86 -138 48 -17 -10 -20 -22 -20 -90 0 -66 5 -87 29 -137 89 -181
304 -261 483 -181 69 31 116 69 159 128 18 26 34 50 34 53 0 3 50 107 110 231
61 124 110 229 110 233 0 8 66 96 90 119 148 148 384 174 558 62 195 -125 229
-434 64 -583 -134 -121 -355 -91 -428 60 -23 47 -23 136 -1 179 25 48 22 90
-9 118 -46 43 -113 26 -143 -34 -67 -133 -47 -300 49 -418 158 -194 476 -205
661 -23 56 55 113 155 133 235 20 76 20 214 1 290 -49 188 -213 349 -409 401
-78 21 -193 25 -276 9z"/>
<path d="M7213 3060 c-33 -13 -56 -55 -50 -89 3 -15 23 -54 45 -87 53 -80 77
-129 95 -194 47 -170 20 -335 -79 -482 -25 -38 -43 -75 -40 -83 3 -9 0 -12 -8
-9 -18 7 -83 -137 -102 -226 -26 -127 -18 -301 19 -406 38 -105 167 -315 205
-333 37 -18 71 -13 97 14 42 41 34 77 -42 196 -92 143 -115 208 -120 339 -3
84 0 118 15 170 23 75 45 133 53 140 15 13 95 142 124 200 54 106 69 178 68
325 0 187 -28 278 -139 445 -55 83 -88 101 -141 80z m22 -990 c10 -11 16 -20
13 -20 -3 0 -13 9 -23 20 -10 11 -16 20 -13 20 3 0 13 -9 23 -20z"/>
<path d="M7704 3059 c-25 -13 -44 -49 -44 -86 0 -14 18 -51 39 -83 82 -120
121 -228 121 -338 0 -43 5 -58 25 -77 30 -31 82 -33 119 -4 24 19 26 27 26 93
0 133 -30 234 -108 363 -77 126 -122 160 -178 132z"/>
<path d="M8201 3056 c-25 -14 -50 -51 -51 -76 0 -9 21 -49 46 -90 76 -123 103
-188 115 -281 20 -158 -15 -286 -116 -434 -65 -94 -112 -196 -130 -280 -18
-86 -19 -259 -1 -341 15 -71 80 -215 107 -240 11 -10 19 -21 19 -27 0 -22 77
-127 102 -137 55 -24 118 15 118 73 0 20 -13 55 -33 88 -19 30 -53 85 -76 123
-60 96 -85 202 -78 322 7 117 38 207 108 310 110 162 147 262 156 429 10 176
-29 310 -138 476 -61 94 -96 114 -148 85z"/>
<path d="M8704 3060 c-29 -12 -54 -49 -54 -81 0 -14 19 -55 41 -90 23 -35 54
-86 69 -114 34 -64 75 -89 118 -74 34 12 62 47 62 79 0 37 -112 234 -151 267
-21 17 -61 23 -85 13z"/>
<path d="M10425 3032 c-37 -34 -37 -35 -10 -3 17 18 25 32 18 30 -18 -6 -243
-230 -243 -242 0 -6 17 5 38 23 l37 35 -32 -35 -33 -34 48 -51 47 -50 -50 48
c-42 39 -53 45 -65 35 -12 -11 -12 -10 -1 5 24 32 -4 18 -42 -21 -38 -39 -50
-65 -19 -41 16 13 16 13 0 -7 -10 -11 -18 -30 -18 -41 0 -31 48 -73 84 -73 26
0 54 23 198 168 146 146 168 172 168 199 0 35 -32 78 -65 87 -15 4 -32 -5 -60
-32z"/>
<path d="M10965 3059 c-35 -20 -514 -502 -508 -512 3 -6 2 -7 -4 -4 -13 8
-339 -321 -352 -355 -20 -54 21 -108 83 -108 40 0 46 5 463 422 232 233 428
435 434 450 15 37 -4 84 -42 103 -33 18 -47 18 -74 4z m-440 -579 c27 -27 47
-50 44 -50 -3 0 -27 23 -54 50 -27 28 -47 50 -44 50 3 0 27 -22 54 -50z"/>
<path d="M11505 3060 c-11 -4 -332 -321 -713 -703 -679 -679 -694 -695 -694
-733 0 -63 66 -104 121 -75 12 7 573 563 610 606 3 3 -22 34 -55 68 l-59 62
62 -59 63 -60 26 25 c14 13 190 188 390 388 346 346 364 366 364 401 0 58 -64
103 -115 80z"/>
<path d="M11736 2809 c-47 -56 -33 -91 83 -202 70 -66 86 -77 116 -77 49 0 85
36 85 86 0 34 -9 47 -93 131 -83 83 -97 93 -129 93 -28 0 -42 -7 -62 -31z"/>
<path d="M2846 2811 c-3 -4 4 -17 16 -27 20 -18 21 -18 15 -1 -4 10 -7 23 -7
28 0 11 -17 12 -24 0z"/>
<path d="M8860 2567 c-33 -16 -46 -47 -59 -137 -12 -81 -45 -158 -110 -255
-48 -72 -53 -114 -16 -150 24 -25 65 -32 100 -19 26 10 124 168 161 259 35 85
54 205 40 259 -6 24 -50 56 -78 56 -7 0 -24 -6 -38 -13z"/>
<path d="M11396 2469 c-21 -16 -26 -29 -26 -62 0 -42 3 -45 263 -304 165 -165
272 -264 289 -268 52 -13 97 28 98 88 0 37 -9 48 -264 303 -244 243 -267 264
-299 264 -20 0 -46 -9 -61 -21z"/>
<path d="M7708 2170 c-14 -10 -41 -46 -61 -80 -107 -179 -126 -437 -46 -637
32 -81 125 -236 171 -285 42 -45 115 -33 138 23 17 39 8 65 -50 153 -108 164
-129 226 -130 381 0 120 15 180 69 281 48 88 51 119 16 157 -31 32 -72 35
-107 7z"/>
<path d="M11049 2121 c-20 -21 -29 -39 -29 -62 0 -31 37 -71 433 -467 237
-239 442 -438 454 -442 34 -14 92 7 103 36 25 66 35 54 -425 514 -239 239
-442 438 -452 442 -34 13 -55 8 -84 -21z"/>
<path d="M1010 1985 c-33 -36 -31 -91 5 -122 l26 -23 411 0 412 0 25 23 26 22
-19 -22 -19 -23 295 0 c330 0 362 -5 441 -65 25 -19 60 -60 79 -92 30 -53 33
-65 33 -140 0 -75 -2 -84 -31 -125 -84 -116 -215 -140 -300 -54 -54 54 -64
104 -35 170 20 42 20 49 7 80 -34 83 -121 74 -167 -16 -73 -144 2 -345 159
-424 51 -25 68 -29 152 -29 88 0 101 3 163 33 217 107 291 354 176 584 -36 71
-133 162 -216 204 l-78 39 -254 3 c-253 4 -253 4 -279 -20 -26 -22 -26 -22 -8
0 l19 22 -500 0 -500 0 -23 -25z m980 -28 c0 -2 -10 -12 -22 -23 l-23 -19 19
23 c18 21 26 27 26 19z"/>
<path d="M8568 1779 c-30 -30 -31 -31 -25 -107 12 -154 48 -243 174 -439 58
-90 78 -103 136 -84 40 14 63 56 53 96 -4 15 -31 64 -61 109 -87 132 -115 202
-124 314 -8 87 -11 98 -35 119 -38 33 -81 30 -118 -8z"/>
<path d="M10699 1771 c-31 -31 -36 -59 -18 -94 15 -29 497 -510 526 -525 59
-32 123 7 123 75 0 36 -12 50 -268 305 -242 243 -271 268 -300 268 -24 0 -42
-9 -63 -29z"/>
<path d="M1016 1638 c-38 -35 -39 -86 -1 -123 l24 -25 431 0 432 0 29 29 c31
31 36 59 17 94 -24 47 -20 46 -475 47 l-432 0 -25 -22z"/>
<path d="M4045 1574 c-25 -23 -27 -29 -23 -92 11 -181 158 -328 342 -340 114
-7 200 23 282 100 l31 29 29 -27 c51 -47 97 -73 164 -90 122 -31 252 -1 345
79 l40 35 45 -38 c56 -46 81 -59 145 -76 224 -60 445 91 471 323 6 60 5 63
-24 93 -62 62 -137 27 -151 -70 -9 -69 -32 -112 -73 -143 -84 -62 -180 -60
-254 5 -43 38 -61 72 -70 129 -12 78 -37 108 -90 109 -50 0 -72 -26 -88 -108
-18 -89 -39 -120 -106 -156 -46 -25 -60 -28 -108 -23 -102 11 -173 84 -187
193 -5 41 -13 58 -32 74 -61 48 -128 10 -143 -82 -12 -79 -47 -130 -111 -162
-75 -37 -134 -32 -206 16 -40 27 -83 108 -83 156 0 24 -8 42 -29 63 -37 37
-78 38 -116 3z"/>
<path d="M10356 1429 c-21 -16 -26 -29 -26 -63 0 -41 4 -47 95 -135 98 -95
120 -105 168 -79 33 17 46 39 47 77 0 31 -11 46 -93 128 -83 82 -97 93 -129
93 -21 0 -46 -9 -62 -21z"/>
<path d="M1016 1288 c-42 -38 -39 -100 7 -128 30 -19 51 -20 344 -20 309 0
312 0 337 23 15 12 29 36 32 54 5 27 1 37 -24 63 l-30 30 -321 0 c-318 0 -320
0 -345 -22z"/>
</g>
</svg>
